<svg xmlns="http://www.w3.org/2000/svg" id="genealogy" height="512" viewBox="0 0 300 300" width="512"><g><circle cx="118.162" cy="126.829" fill="#ffe5d2" r="86"></circle><g fill="#4c241d"><circle cx="44.162" cy="120.829" r="4"></circle><path d="m249.053 53.954c-1.023 0-2.047-.391-2.828-1.172-1.562-1.562-1.562-4.096 0-5.656l14.785-14.783c1.562-1.562 4.094-1.562 5.656 0s1.562 4.096 0 5.656l-14.785 14.783c-.781.781-1.805 1.172-2.828 1.172z"></path><path d="m263.838 53.954c-1.023 0-2.047-.391-2.828-1.172l-14.785-14.783c-1.562-1.561-1.562-4.094 0-5.656s4.094-1.562 5.656 0l14.785 14.783c1.562 1.561 1.562 4.094 0 5.656-.781.781-1.805 1.172-2.828 1.172z"></path><circle cx="256.992" cy="220.786" r="4.276"></circle><path d="m46.162 204.829c-7.719 0-14-6.281-14-14s6.281-14 14-14 14 6.281 14 14-6.281 14-14 14zm0-20c-3.309 0-6 2.691-6 6s2.691 6 6 6 6-2.691 6-6-2.691-6-6-6z"></path></g><g><path d="m236.162 60.829h-156.065c-6.591 0-11.935 5.343-11.935 11.935v176.065h168z" fill="#ffce56"></path><path d="m236.162 252.829h-168c-2.211 0-4-1.791-4-4v-176.066c0-8.785 7.148-15.934 15.934-15.934h156.066c2.211 0 4 1.791 4 4v188c0 2.209-1.789 4-4 4zm-164-8h160v-180h-152.066c-4.375 0-7.934 3.559-7.934 7.934z" fill="#4c241d"></path></g><g><path d="m92.162 60.829h-12.065c-6.591 0-11.935 5.343-11.935 11.935v176.065h24z" fill="#816982"></path><path d="m92.162 252.829h-24c-2.211 0-4-1.791-4-4v-176.066c0-8.785 7.148-15.934 15.934-15.934h12.066c2.211 0 4 1.791 4 4v188c0 2.209-1.789 4-4 4zm-20-8h16v-180h-8.066c-4.375 0-7.934 3.559-7.934 7.934z" fill="#4c241d"></path></g><g><path d="m236.162 232.829h-152c-8.837 0-16 7.163-16 16 0 8.837 7.163 16 16 16h152z" fill="#fff"></path><path d="m236.162 268.829h-152c-11.027 0-20-8.973-20-20s8.973-20 20-20h152c2.211 0 4 1.791 4 4v32c0 2.209-1.789 4-4 4zm-152-32c-6.617 0-12 5.383-12 12s5.383 12 12 12h148v-24z" fill="#4c241d"></path></g><path d="m136.162 252.829h-68c-2.211 0-4-1.791-4-4s1.789-4 4-4h68c2.211 0 4 1.791 4 4s-1.789 4-4 4z" fill="#4c241d"></path><g><circle cx="176.162" cy="68.829" fill="#e66353" r="32"></circle><path d="m176.162 104.829c-19.852 0-36-16.15-36-36s16.148-36 36-36 36 16.15 36 36-16.148 36-36 36zm0-64c-15.438 0-28 12.561-28 28s12.562 28 28 28 28-12.561 28-28-12.562-28-28-28z" fill="#4c241d"></path></g><g><path d="m199.901 90.234c-1.284-9.807-9.582-17.405-19.739-17.405h-8c-10.157 0-18.454 7.598-19.739 17.405 5.857 6.49 14.308 10.595 23.739 10.595s17.882-4.104 23.739-10.595z" fill="#26deeb"></path><path d="m176.162 104.829c-10.141 0-19.875-4.344-26.707-11.916-.785-.869-1.148-2.039-.996-3.199 1.559-11.906 11.75-20.885 23.703-20.885h8c11.953 0 22.145 8.979 23.703 20.885.152 1.16-.211 2.33-.996 3.199-6.832 7.572-16.566 11.916-26.707 11.916zm-19.43-15.889c5.211 5.035 12.191 7.889 19.43 7.889s14.219-2.854 19.43-7.889c-1.758-7.02-8.094-12.111-15.43-12.111h-8c-7.336 0-13.672 5.092-15.43 12.111z" fill="#4c241d"></path></g><g><ellipse cx="176.162" cy="62.829" fill="#ffded5" rx="16" ry="18"></ellipse><path d="m176.162 84.829c-11.027 0-20-9.869-20-22s8.973-22 20-22 20 9.869 20 22-8.973 22-20 22zm0-36c-6.617 0-12 6.281-12 14s5.383 14 12 14 12-6.281 12-14-5.383-14-12-14z" fill="#4c241d"></path></g><g><circle cx="136.162" cy="180.829" fill="#816982" r="32"></circle><path d="m136.162 216.829c-19.852 0-36-16.15-36-36s16.148-36 36-36 36 16.15 36 36-16.148 36-36 36zm0-64c-15.438 0-28 12.561-28 28s12.562 28 28 28 28-12.561 28-28-12.562-28-28-28z" fill="#4c241d"></path></g><g><path d="m159.901 202.234c-1.284-9.807-9.582-17.405-19.739-17.405h-8c-10.157 0-18.454 7.598-19.739 17.405 5.857 6.49 14.308 10.595 23.739 10.595s17.882-4.104 23.739-10.595z" fill="#d6d6d6"></path><path d="m136.162 216.829c-10.141 0-19.875-4.344-26.707-11.916-.785-.869-1.148-2.039-.996-3.199 1.559-11.906 11.75-20.885 23.703-20.885h8c11.953 0 22.145 8.979 23.703 20.885.152 1.16-.211 2.33-.996 3.199-6.832 7.572-16.566 11.916-26.707 11.916zm-19.43-15.889c5.211 5.035 12.191 7.889 19.43 7.889s14.219-2.854 19.43-7.889c-1.758-7.02-8.094-12.111-15.43-12.111h-8c-7.336 0-13.672 5.092-15.43 12.111z" fill="#4c241d"></path></g><g><ellipse cx="136.162" cy="174.829" fill="#ffded5" rx="16" ry="18"></ellipse><path d="m136.162 196.829c-11.027 0-20-9.869-20-22s8.973-22 20-22 20 9.869 20 22-8.973 22-20 22zm0-36c-6.617 0-12 6.281-12 14s5.383 14 12 14 12-6.281 12-14-5.383-14-12-14z" fill="#4c241d"></path></g><g><circle cx="216.162" cy="180.829" fill="#bd53b5" r="32"></circle><path d="m216.162 216.829c-19.852 0-36-16.15-36-36s16.148-36 36-36 36 16.15 36 36-16.148 36-36 36zm0-64c-15.438 0-28 12.561-28 28s12.562 28 28 28 28-12.561 28-28-12.562-28-28-28z" fill="#4c241d"></path></g><g><path d="m239.901 202.234c-1.284-9.807-9.582-17.405-19.739-17.405h-8c-10.157 0-18.454 7.598-19.739 17.405 5.857 6.49 14.308 10.595 23.739 10.595s17.882-4.104 23.739-10.595z" fill="#a9ba5a"></path><path d="m216.162 216.829c-10.141 0-19.875-4.344-26.707-11.916-.785-.869-1.148-2.039-.996-3.199 1.559-11.906 11.75-20.885 23.703-20.885h8c11.953 0 22.145 8.979 23.703 20.885.152 1.16-.211 2.33-.996 3.199-6.832 7.572-16.566 11.916-26.707 11.916zm-19.43-15.889c5.211 5.035 12.191 7.889 19.43 7.889s14.219-2.854 19.43-7.889c-1.758-7.02-8.094-12.111-15.43-12.111h-8c-7.336 0-13.672 5.092-15.43 12.111z" fill="#4c241d"></path></g><g><ellipse cx="216.162" cy="174.829" fill="#ffded5" rx="16" ry="18"></ellipse><path d="m216.162 196.829c-11.027 0-20-9.869-20-22s8.973-22 20-22 20 9.869 20 22-8.973 22-20 22zm0-36c-6.617 0-12 6.281-12 14s5.383 14 12 14 12-6.281 12-14-5.383-14-12-14z" fill="#4c241d"></path></g><path d="m176.162 128.829c-2.211 0-4-1.791-4-4v-12c0-2.209 1.789-4 4-4s4 1.791 4 4v12c0 2.209-1.789 4-4 4z" fill="#4c241d"></path><path d="m212.162 140.829c-2.211 0-4-1.791-4-4v-4h-64v4c0 2.209-1.789 4-4 4s-4-1.791-4-4v-8c0-2.209 1.789-4 4-4h72c2.211 0 4 1.791 4 4v8c0 2.209-1.789 4-4 4z" fill="#4c241d"></path></g></svg>